# xmcd CD database file
#
# Track frame offsets:
#	150
#	17610
#	29265
#	54165
#	77245
#	93493
#	105346
#	116262
#	126569
#	135295
#	145625
#	155975
#	167352
#	183730
#	209000
#	222778
#	236490
#	250841
#
# Disc length: 3588 seconds
#
# Revision: 2
# Processed by: cddbd v1.5.1PL2 Copyright (c) Steve Scherf et al.
# Submitted via: CDex 1.51
#
DISCID=f00e0212
DTITLE=Yardbirds - Stroll On With Yardbirds CD2
DYEAR=2004
DGENRE=Rock
TTITLE0=Too Munch Monkey Business
TTITLE1=Got Love If You Want It
TTITLE2=Smokestack Lightning
TTITLE3=Five Long Years
TTITLE4=Louise
TTITLE5=Baby What's Wrong
TTITLE6=Boom Boom
TTITLE7=Honey In Your Hips
TTITLE8=Talkin' About You
TTITLE9=Let It Rock
TTITLE10=Putty In Your Hands
TTITLE11=I'm Not Talking
TTITLE12=I Ain't Done Wrong
TTITLE13=My Girl Sloopy
TTITLE14=Jeff's Blues
TTITLE15=Like Jimmy Reed Again
TTITLE16=What Do You Want
TTITLE17=Here 'tis
EXTD=YEAR: 2004
EXTT0=
EXTT1=
EXTT2=
EXTT3=
EXTT4=
EXTT5=
EXTT6=
EXTT7=
EXTT8=
EXTT9=
EXTT10=
EXTT11=
EXTT12=
EXTT13=
EXTT14=
EXTT15=
EXTT16=
EXTT17=
PLAYORDER=
